<mxfile host="app.diagrams.net" modified="2023-12-28T02:51:57.965Z" agent="Mozilla/5.0 (Windows NT 10.0; Win64; x64) AppleWebKit/537.36 (KHTML, like Gecko) Chrome/119.0.0.0 Safari/537.36" etag="1r-qm5ZZT5pW6a4AMtTY" version="22.1.15" type="github">
  <diagram name="第 1 页" id="wjDbquZsShtjqyhfpNvz">
    <mxGraphModel dx="1050" dy="557" grid="1" gridSize="10" guides="1" tooltips="1" connect="1" arrows="1" fold="1" page="1" pageScale="1" pageWidth="827" pageHeight="1169" math="0" shadow="0">
      <root>
        <mxCell id="0" />
        <mxCell id="1" parent="0" />
        <mxCell id="aaFWmWOjGR0QmLtAELQp-1" value="脏腑" style="ellipse;whiteSpace=wrap;html=1;fontSize=18;" vertex="1" parent="1">
          <mxGeometry x="190" y="170" width="90" height="60" as="geometry" />
        </mxCell>
        <mxCell id="aaFWmWOjGR0QmLtAELQp-3" style="edgeStyle=orthogonalEdgeStyle;rounded=0;orthogonalLoop=1;jettySize=auto;html=1;exitX=0;exitY=1;exitDx=0;exitDy=0;entryX=0.5;entryY=0;entryDx=0;entryDy=0;" edge="1" parent="1" source="aaFWmWOjGR0QmLtAELQp-2" target="aaFWmWOjGR0QmLtAELQp-1">
          <mxGeometry relative="1" as="geometry" />
        </mxCell>
        <mxCell id="aaFWmWOjGR0QmLtAELQp-4" value="Text" style="edgeLabel;html=1;align=center;verticalAlign=middle;resizable=0;points=[];" vertex="1" connectable="0" parent="aaFWmWOjGR0QmLtAELQp-3">
          <mxGeometry x="0.5298" y="-3" relative="1" as="geometry">
            <mxPoint as="offset" />
          </mxGeometry>
        </mxCell>
        <mxCell id="aaFWmWOjGR0QmLtAELQp-5" value="&lt;font style=&quot;font-size: 15px;&quot;&gt;藏于脏腑而濡养脏腑&lt;/font&gt;" style="edgeLabel;html=1;align=center;verticalAlign=middle;resizable=0;points=[];" vertex="1" connectable="0" parent="aaFWmWOjGR0QmLtAELQp-3">
          <mxGeometry x="0.5298" y="-2" relative="1" as="geometry">
            <mxPoint as="offset" />
          </mxGeometry>
        </mxCell>
        <mxCell id="aaFWmWOjGR0QmLtAELQp-2" value="脏腑之精" style="ellipse;whiteSpace=wrap;html=1;fontSize=17;" vertex="1" parent="1">
          <mxGeometry x="294" y="60" width="96" height="50" as="geometry" />
        </mxCell>
        <mxCell id="aaFWmWOjGR0QmLtAELQp-6" value="脏腑之气" style="ellipse;whiteSpace=wrap;html=1;fontSize=17;" vertex="1" parent="1">
          <mxGeometry x="300" y="280" width="96" height="50" as="geometry" />
        </mxCell>
      </root>
    </mxGraphModel>
  </diagram>
</mxfile>
